<?xml version="1.0" encoding="iso-8859-1"?>
<!-- Generator: Adobe Illustrator 29.8.1, SVG Export Plug-In . SVG Version: 9.03 Build 0)  -->
<svg version="1.1" xmlns="http://www.w3.org/2000/svg" xmlns:xlink="http://www.w3.org/1999/xlink" x="0px" y="0px"
	 viewBox="0 0 1080 1080" style="enable-background:new 0 0 1080 1080;" xml:space="preserve">
<g id="Layer_3">
	<rect x="-7.248" style="fill:#0A114F;" width="1087.248" height="1080"/>
</g>
<g id="Layer_2">
</g>
<g id="Layer_1">
	<g>
		<rect x="810.414" y="449.363" style="fill:#E30F29;" width="181.275" height="181.275"/>
		<g>
			<path style="fill:#FFFFFF;" d="M88.311,489.091h45.482c4.371,0,8.417,0.467,12.138,1.396c3.719,0.931,6.976,2.419,9.766,4.464
				c2.79,2.047,4.929,4.652,6.417,7.813c1.487,3.163,2.232,6.93,2.232,11.3c0,3.257-0.397,6.118-1.186,8.58
				c-0.791,2.466-1.883,4.604-3.278,6.419c-1.395,1.814-2.954,3.326-4.674,4.533c-1.722,1.21-3.606,2.281-5.651,3.209v0.279
				c2.324,0.746,4.534,1.744,6.627,3c2.093,1.255,3.906,2.838,5.441,4.743c1.534,1.908,2.766,4.185,3.697,6.836
				c0.928,2.65,1.395,5.744,1.395,9.279c0,3.721-0.652,7.254-1.953,10.603c-1.304,3.349-3.279,6.303-5.93,8.859
				c-2.651,2.56-6.047,4.583-10.184,6.069c-4.14,1.489-8.999,2.232-14.579,2.232H88.311V489.091z M112.726,528.294h13.115
				c4.37,0,7.813-0.767,10.324-2.302c2.511-1.534,3.767-4.162,3.767-7.882c0-1.954-0.373-3.558-1.116-4.814
				c-0.746-1.255-1.744-2.232-3-2.93c-1.255-0.697-2.699-1.186-4.325-1.464c-1.628-0.28-3.327-0.419-5.092-0.419h-13.673V528.294z
				 M112.726,569.312h14.091c2.324,0,4.417-0.139,6.278-0.418c1.86-0.281,3.464-0.791,4.813-1.536
				c1.348-0.743,2.418-1.812,3.209-3.209c0.789-1.395,1.186-3.207,1.186-5.44c0-2.324-0.443-4.163-1.326-5.512
				c-0.885-1.345-2.117-2.44-3.697-3.277c-1.583-0.838-3.418-1.417-5.511-1.744c-2.093-0.326-4.443-0.488-7.045-0.488h-11.998
				V569.312z"/>
			<path style="fill:#FFFFFF;" d="M187.645,489.091h40.738c4.743,0,9.229,0.442,13.463,1.325c4.231,0.886,8.068,2.35,11.51,4.395
				c3.44,2.047,6.209,4.837,8.301,8.371c2.093,3.535,3.139,7.951,3.139,13.254c-0.094,6.325-1.583,11.325-4.464,14.998
				c-2.884,3.675-6.791,6.441-11.719,8.301v0.28c1.395,0.557,2.627,1.233,3.697,2.022c1.068,0.792,2.044,1.838,2.93,3.139
				c0.883,1.304,1.72,2.954,2.511,4.953c0.789,2.002,1.604,4.489,2.441,7.465c1.581,5.3,3.115,10.487,4.604,15.556
				c1.487,5.069,3.021,10.253,4.604,15.556h-26.229c-0.467-1.954-0.955-3.976-1.465-6.069c-0.513-2.093-1.07-4.276-1.674-6.558
				c-0.606-2.277-1.186-4.51-1.744-6.697c-0.558-2.183-1.025-3.927-1.395-5.232c-0.652-2.601-1.373-4.788-2.162-6.556
				c-0.792-1.765-1.862-3.139-3.209-4.115c-1.35-0.977-3.024-1.675-5.023-2.093c-2.001-0.418-4.722-0.628-8.161-0.628h-6.278v37.948
				h-24.415V489.091z M212.06,531.364h10.603c2.511,0,4.835-0.14,6.976-0.419c2.139-0.28,3.998-0.838,5.58-1.674
				c1.581-0.838,2.837-1.999,3.767-3.488c0.928-1.487,1.395-3.395,1.395-5.72c0-2.418-0.512-4.395-1.534-5.929
				c-1.025-1.535-2.35-2.697-3.976-3.488c-1.628-0.789-3.488-1.348-5.58-1.674c-2.093-0.326-4.209-0.488-6.348-0.488H212.06V531.364
				z"/>
			<path style="fill:#FFFFFF;" d="M378.221,539.037c0,7.442-1.046,14.301-3.139,20.578c-2.093,6.277-5.162,11.697-9.208,16.254
				s-9.068,8.115-15.067,10.671c-5.999,2.558-12.905,3.837-20.718,3.837c-7.721,0-14.557-1.279-20.508-3.837
				c-5.953-2.556-10.952-6.114-14.998-10.671s-7.115-9.977-9.208-16.254c-2.093-6.277-3.139-13.137-3.139-20.578
				c0-7.534,1.022-14.416,3.069-20.648c2.045-6.23,5.092-11.672,9.138-16.323c4.046-4.65,9.068-8.254,15.067-10.813
				c5.999-2.557,12.857-3.837,20.578-3.837c7.904,0,14.834,1.28,20.787,3.837c5.952,2.559,10.952,6.116,14.998,10.672
				c4.046,4.559,7.115,9.976,9.208,16.254C377.175,524.458,378.221,531.411,378.221,539.037z M353.806,539.037
				c0-4.465-0.466-8.672-1.395-12.626c-0.931-3.953-2.372-7.371-4.325-10.254c-1.953-2.881-4.419-5.162-7.394-6.836
				c-2.978-1.674-6.511-2.511-10.603-2.511c-4,0-7.488,0.837-10.463,2.511c-2.978,1.674-5.419,3.955-7.324,6.836
				c-1.908,2.884-3.327,6.302-4.255,10.254c-0.931,3.954-1.395,8.161-1.395,12.626s0.464,8.604,1.395,12.416
				c0.929,3.816,2.348,7.186,4.255,10.116c1.905,2.929,4.37,5.232,7.394,6.905c3.021,1.675,6.579,2.511,10.673,2.511
				c4.092,0,7.625-0.812,10.603-2.44c2.976-1.626,5.417-3.929,7.324-6.907c1.906-2.976,3.301-6.369,4.186-10.185
				C353.363,547.641,353.806,543.502,353.806,539.037z"/>
			<path style="fill:#FFFFFF;" d="M455.093,510.018c-3.442-1.115-6.976-1.929-10.603-2.441c-3.628-0.51-7.069-0.767-10.324-0.767
				c-1.862,0-3.651,0.139-5.371,0.419c-1.722,0.279-3.209,0.721-4.464,1.325c-1.256,0.606-2.256,1.443-3,2.511
				c-0.746,1.07-1.116,2.442-1.116,4.116c0.091,2.885,1.534,5.256,4.325,7.116c2.79,1.862,7.3,4.046,13.533,6.557
				c3.906,1.674,7.464,3.372,10.673,5.092c3.209,1.722,6.09,3.767,8.65,6.139c2.557,2.372,4.51,5.186,5.859,8.44
				c1.347,3.257,2.023,7.162,2.023,11.719c0,5.022-1.025,9.418-3.069,13.184c-2.047,3.766-4.837,6.905-8.371,9.418
				c-3.535,2.511-7.603,4.394-12.207,5.649c-4.604,1.255-9.557,1.883-14.858,1.883c-4.652,0-9.674-0.349-15.067-1.045
				c-5.395-0.698-10.603-1.836-15.625-3.419l3.906-19.532c4.65,1.583,9.184,2.744,13.603,3.488
				c4.416,0.746,8.392,1.116,11.928,1.116c5.301,0,9.184-0.788,11.649-2.372c2.464-1.579,3.697-3.858,3.697-6.836
				c0-1.487-0.327-2.811-0.976-3.976c-0.652-1.161-1.652-2.277-3-3.346c-1.349-1.069-3.117-2.115-5.301-3.141
				c-2.186-1.022-4.907-2.184-8.161-3.487c-3.815-1.487-7.372-3.139-10.673-4.953c-3.303-1.814-6.233-3.906-8.79-6.277
				c-2.559-2.373-4.558-5.092-5.999-8.162c-1.443-3.069-2.162-6.648-2.162-10.742c0-5.301,1.046-9.928,3.139-13.882
				c2.093-3.953,4.904-7.116,8.44-9.487c3.534-2.372,7.44-4.116,11.719-5.232c4.277-1.116,8.65-1.674,13.114-1.674
				c5.023,0,9.836,0.28,14.44,0.838c4.604,0.558,8.72,1.395,12.347,2.511L455.093,510.018z"/>
			<path style="fill:#FFFFFF;" d="M541.591,565.265h0.419l14.928-76.174h41.017v99.613h-23.02v-78.826h-0.279l-17.997,78.826
				h-30.414l-18.137-78.826h-0.279v78.826h-22.183v-99.613h40.738L541.591,565.265z"/>
			<path style="fill:#FFFFFF;" d="M622.927,489.091h62.641v19.393h-38.226v19.811h35.019v19.393h-35.019v21.625h39.484v19.393
				h-63.898V489.091z"/>
			<path style="fill:#FFFFFF;" d="M706.915,489.091h36.691c8.277,0,15.625,1.116,22.044,3.349c6.417,2.232,11.74,5.465,15.974,9.696
				c4.231,4.233,7.416,9.395,9.557,15.486c2.138,6.093,3.208,12.953,3.208,20.578c0,7.721-1.07,14.697-3.208,20.927
				c-2.141,6.232-5.326,11.558-9.557,15.974c-4.233,4.42-9.535,7.792-15.904,10.116c-6.372,2.324-13.742,3.488-22.114,3.488h-36.691
				V489.091z M731.329,569.312h8.789c5.393,0,9.976-0.743,13.742-2.232c3.767-1.487,6.858-3.604,9.278-6.348
				c2.418-2.742,4.162-5.975,5.232-9.696c1.068-3.719,1.605-7.813,1.605-12.277c0-4.464-0.558-8.556-1.674-12.277
				c-1.116-3.719-2.86-6.906-5.232-9.557c-2.372-2.65-5.441-4.719-9.208-6.208c-3.766-1.487-8.349-2.232-13.742-2.232h-8.789
				V569.312z"/>
			<path style="fill:#FFFFFF;" d="M841.266,489.091h24.414v99.613h-24.414V489.091z"/>
			<path style="fill:#FFFFFF;" d="M890.794,588.704h-25.95l34.879-99.613h33.622l34.599,99.613h-26.228l-7.534-21.625h-36.134
				L890.794,588.704z M903.769,547.687h24.833l-12.277-39.483L903.769,547.687z"/>
		</g>
	</g>
</g>
</svg>
